<?xml version="1.0" standalone="no"?>
<!DOCTYPE svg PUBLIC "-//W3C//DTD SVG 20010904//EN"
 "http://www.w3.org/TR/2001/REC-SVG-20010904/DTD/svg10.dtd">
<svg version="1.0" xmlns="http://www.w3.org/2000/svg"
 width="513.000000pt" height="94.000000pt" viewBox="0 0 513.000000 94.000000"
 preserveAspectRatio="xMidYMid meet">
<metadata>
Created by potrace 1.16, written by Peter Selinger 2001-2019
</metadata>
<g transform="translate(0.000000,94.000000) scale(0.100000,-0.100000)"
fill="#000000" stroke="none">
<path d="M0 649 c0 -228 3 -290 13 -287 9 4 13 65 15 251 l2 247 70 0 c57 0
70 -3 74 -17 4 -15 30 -151 53 -281 3 -18 9 -34 12 -37 4 -2 19 65 35 148 15
84 30 160 33 170 4 14 16 17 79 17 l74 0 0 -385 0 -386 -57 3 -58 3 -5 220 -5
220 -12 -85 c-7 -47 -22 -143 -33 -215 -11 -72 -20 -133 -20 -137 0 -5 -13 -8
-29 -8 -27 0 -29 3 -35 47 -4 27 -13 91 -22 143 -8 52 -21 136 -28 185 l-14
90 -1 -233 -1 -233 -57 3 -58 3 0 128 c0 104 -2 124 -12 110 -9 -12 -13 -64
-13 -175 l0 -158 2565 0 2565 0 0 470 0 470 -2565 0 -2565 0 0 -291z m2566
178 c18 -19 37 -52 43 -74 14 -50 14 -506 0 -556 -6 -22 -26 -55 -44 -75 -32
-35 -37 -37 -97 -37 -73 0 -106 19 -135 75 -16 31 -18 66 -18 315 0 260 1 283
20 320 27 54 73 77 144 72 47 -3 59 -9 87 -40z m994 25 c19 -11 43 -36 54 -58
19 -36 21 -60 24 -299 3 -292 -1 -325 -55 -377 -32 -31 -39 -33 -99 -33 -63 0
-67 2 -99 37 -18 20 -38 53 -44 75 -15 51 -14 506 0 558 14 49 42 86 77 102
40 18 103 15 142 -5z m1069 0 c54 -27 81 -88 81 -184 l0 -78 -55 0 -55 0 0 61
c0 69 -12 99 -40 99 -35 0 -40 -31 -40 -275 0 -244 5 -275 40 -275 28 0 40 30
40 99 l0 61 55 0 55 0 0 -77 c0 -137 -48 -198 -158 -198 -60 0 -65 2 -97 37
-18 20 -38 53 -44 75 -14 50 -14 501 0 556 6 23 19 52 29 65 43 52 125 67 189
34z m359 4 c15 -8 35 -22 44 -33 21 -23 53 -142 41 -154 -4 -4 -31 -11 -59
-14 l-51 -7 -6 42 c-10 77 -60 94 -72 26 -8 -42 16 -98 104 -235 80 -124 99
-183 83 -259 -14 -68 -36 -101 -83 -124 -74 -39 -182 -8 -215 60 -10 20 -20
62 -22 93 l-4 57 50 7 c28 4 56 4 62 0 5 -3 10 -23 10 -44 0 -51 31 -91 57
-75 28 17 38 57 25 102 -7 21 -46 91 -87 154 -85 133 -108 199 -96 277 9 60
31 95 74 121 38 23 106 26 145 6z m-4190 -53 l-3 -58 -72 -3 -73 -3 0 -94 0
-94 53 -3 52 -3 3 -62 c3 -58 1 -63 -20 -68 -13 -3 -36 -4 -53 -3 l-30 3 -3
-102 -3 -103 76 0 76 0 -3 -58 -3 -57 -132 -3 -133 -3 0 386 0 385 135 0 136
0 -3 -57z m350 0 l-3 -58 -52 -3 -53 -3 0 -325 0 -324 -60 0 -60 0 0 325 0
325 -55 0 -55 0 0 60 0 60 170 0 171 0 -3 -57z m266 33 c3 -13 17 -100 31
-192 14 -93 34 -227 45 -299 11 -71 24 -157 30 -190 5 -33 10 -61 10 -62 0 -2
-27 -3 -59 -3 l-60 0 -6 58 c-11 93 -10 92 -65 92 -53 0 -53 1 -66 -97 l-7
-53 -60 0 -59 0 6 33 c4 17 16 93 27 167 22 148 64 429 74 500 11 72 8 70 84
70 64 0 69 -2 75 -24z m377 1 c65 -34 99 -105 99 -206 0 -131 -57 -214 -159
-231 l-36 -5 -3 -153 -3 -153 -57 3 -57 3 -3 383 -2 382 88 0 c73 0 97 -4 133
-23z m387 -5 c47 -34 65 -76 70 -165 5 -85 -9 -154 -39 -186 -18 -19 -18 -24
16 -195 19 -97 35 -181 35 -186 0 -6 -26 -10 -58 -10 l-59 0 -16 87 c-9 49
-22 121 -29 161 -8 46 -17 72 -25 72 -10 0 -13 -36 -13 -160 l0 -160 -60 0
-60 0 0 386 0 386 103 -4 c88 -3 107 -6 135 -26z m802 -32 l0 -60 -55 0 -55 0
0 -325 0 -326 -57 3 -58 3 -3 323 -2 322 -50 0 -50 0 0 60 0 60 165 0 165 0 0
-60z m300 0 l0 -60 -70 0 -70 0 0 -94 0 -95 48 -3 47 -3 3 -62 3 -63 -51 0
-50 0 0 -105 0 -105 70 0 70 0 0 -60 0 -60 -130 0 -130 0 0 385 0 385 130 0
130 0 0 -60z m601 -85 c14 -77 29 -153 34 -170 l7 -30 8 25 c5 14 20 91 35
173 l27 147 74 0 74 0 0 -385 0 -385 -55 0 -55 0 -1 243 c0 133 -2 238 -4 232
-2 -5 -16 -86 -30 -180 -45 -301 -44 -297 -73 -293 -29 3 -22 -28 -78 333
l-19 120 -3 -227 -2 -228 -55 0 -55 0 0 385 0 386 73 -3 72 -3 26 -140z m451
-230 c2 -206 2 -380 0 -385 -2 -6 -30 -10 -63 -10 l-59 0 0 385 0 385 60 0 60
0 2 -375z"/>
<path d="M2435 728 c-3 -13 -4 -133 -3 -267 3 -223 5 -245 21 -255 15 -9 21
-7 33 8 11 16 14 66 14 259 0 145 -4 246 -10 258 -15 26 -48 25 -55 -3z"/>
<path d="M3460 731 c-6 -12 -10 -113 -10 -258 0 -193 3 -243 14 -259 12 -15
18 -17 33 -8 16 10 18 32 21 255 1 134 0 254 -3 267 -7 28 -40 29 -55 3z"/>
<path d="M1690 630 c0 -103 1 -110 20 -110 41 0 60 34 60 108 0 74 -21 112
-60 112 -19 0 -20 -7 -20 -110z"/>
</g>
</svg>
